<svg xmlns="http://www.w3.org/2000/svg" width="24" height="24" viewBox="0 0 24 24">
  <path id="printer_icon" data-name="printer icon" class="rh_svg" d="M1109,1071h18a3,3,0,0,1,3,3v11h-24v-11A3,3,0,0,1,1109,1071Zm2,13h14v3a2.006,2.006,0,0,1-2,2h-10a2.006,2.006,0,0,1-2-2v-3Zm2-19h10a2,2,0,0,1,2,2v4h-14v-4A2,2,0,0,1,1113,1065Zm0,20h10v1a1,1,0,0,1-1,1h-8a1,1,0,0,1-1-1v-1Zm1-18h8a1,1,0,0,1,1,1v3h-10v-3A1,1,0,0,1,1114,1067Zm10,7h2v2h-2v-2Zm-15,3h18v5h-18v-5Z" transform="translate(-1106 -1065)"/>
</svg>
